<svg xmlns="http://www.w3.org/2000/svg" width="54" height="41" viewBox="0 0 54 41" fill="none">
<path d="M41.0073 4.51045L26.8854 0.824219L12.7644 4.51045C12.7644 4.51045 7.69335 25.2211 26.8854 29.5779C46.0783 25.2211 41.0073 4.51045 41.0073 4.51045ZM21.4641 10.8379C21.4641 8.26946 23.8966 6.18048 26.8862 6.18048C29.8755 6.18048 32.308 8.26983 32.308 10.8379V12.5771H31.2247V10.8379C31.2247 8.78257 29.2787 7.11073 26.8862 7.11073C24.493 7.11073 22.5469 8.78257 22.5469 10.8379V12.5771H21.4641V10.8379ZM26.8854 8.35311C25.2909 8.35311 23.9927 9.46803 23.9927 10.8379V12.5771H23.5868V10.8379C23.5868 9.27575 25.0671 8.0044 26.8854 8.0044C28.7046 8.0044 30.1849 9.27575 30.1849 10.8379V12.5771H29.7781V10.8379C29.7781 9.46803 28.4808 8.35311 26.8854 8.35311ZM34.0231 22.431C34.0231 22.7403 33.7318 22.9905 33.3727 22.9905H20.399C20.0399 22.9905 19.7486 22.7403 19.7486 22.431V13.7166C19.7486 13.4077 20.0399 13.1582 20.399 13.1582H33.3727C33.7318 13.1582 34.0231 13.4077 34.0231 13.7166V22.431Z" fill="#111111"/>
<path d="M26.8864 15.543C25.9372 15.543 25.168 16.2042 25.168 17.0196C25.168 17.5983 25.5557 18.0976 26.1197 18.3399V20.3535H27.654V18.3399C28.2179 18.0973 28.6061 17.5979 28.6061 17.0196C28.6057 16.2045 27.8365 15.543 26.8864 15.543Z" fill="#111111"/>
<path d="M3.12891 39H2V34.6484L0.652344 35.0664V34.1484L3.00781 33.3047H3.12891V39ZM8.80859 36.6484C8.80859 37.4349 8.64583 38.0365 8.32031 38.4531C7.99479 38.8698 7.51823 39.0781 6.89062 39.0781C6.27083 39.0781 5.79688 38.8737 5.46875 38.4648C5.14062 38.056 4.97266 37.4701 4.96484 36.707V35.6602C4.96484 34.8659 5.12891 34.263 5.45703 33.8516C5.78776 33.4401 6.26302 33.2344 6.88281 33.2344C7.5026 33.2344 7.97656 33.4388 8.30469 33.8477C8.63281 34.2539 8.80078 34.8385 8.80859 35.6016V36.6484ZM7.67969 35.5C7.67969 35.0286 7.61458 34.6862 7.48438 34.4727C7.35677 34.2565 7.15625 34.1484 6.88281 34.1484C6.61719 34.1484 6.42057 34.2513 6.29297 34.457C6.16797 34.6602 6.10156 34.9792 6.09375 35.4141V36.7969C6.09375 37.2604 6.15625 37.6055 6.28125 37.832C6.40885 38.056 6.61198 38.168 6.89062 38.168C7.16667 38.168 7.36589 38.0599 7.48828 37.8438C7.61068 37.6276 7.67448 37.2969 7.67969 36.8516V35.5ZM13.4023 36.6484C13.4023 37.4349 13.2396 38.0365 12.9141 38.4531C12.5885 38.8698 12.112 39.0781 11.4844 39.0781C10.8646 39.0781 10.3906 38.8737 10.0625 38.4648C9.73438 38.056 9.56641 37.4701 9.55859 36.707V35.6602C9.55859 34.8659 9.72266 34.263 10.0508 33.8516C10.3815 33.4401 10.8568 33.2344 11.4766 33.2344C12.0964 33.2344 12.5703 33.4388 12.8984 33.8477C13.2266 34.2539 13.3945 34.8385 13.4023 35.6016V36.6484ZM12.2734 35.5C12.2734 35.0286 12.2083 34.6862 12.0781 34.4727C11.9505 34.2565 11.75 34.1484 11.4766 34.1484C11.2109 34.1484 11.0143 34.2513 10.8867 34.457C10.7617 34.6602 10.6953 34.9792 10.6875 35.4141V36.7969C10.6875 37.2604 10.75 37.6055 10.875 37.832C11.0026 38.056 11.2057 38.168 11.4844 38.168C11.7604 38.168 11.9596 38.0599 12.082 37.8438C12.2044 37.6276 12.2682 37.2969 12.2734 36.8516V35.5ZM14.1523 34.4062C14.1523 34.0573 14.2656 33.7747 14.4922 33.5586C14.7188 33.3398 15.0156 33.2305 15.3828 33.2305C15.7552 33.2305 16.0547 33.3385 16.2812 33.5547C16.5078 33.7682 16.6211 34.0586 16.6211 34.4258V34.707C16.6211 35.0586 16.5078 35.3411 16.2812 35.5547C16.0547 35.7682 15.7578 35.875 15.3906 35.875C15.0208 35.875 14.7214 35.7682 14.4922 35.5547C14.2656 35.3385 14.1523 35.0482 14.1523 34.6836V34.4062ZM14.9023 34.707C14.9023 34.8633 14.9466 34.9896 15.0352 35.0859C15.1263 35.1797 15.2448 35.2266 15.3906 35.2266C15.5365 35.2266 15.6523 35.1784 15.7383 35.082C15.8242 34.9857 15.8672 34.8568 15.8672 34.6953V34.4062C15.8672 34.25 15.8242 34.1237 15.7383 34.0273C15.6523 33.931 15.5339 33.8828 15.3828 33.8828C15.2396 33.8828 15.1237 33.931 15.0352 34.0273C14.9466 34.1211 14.9023 34.2526 14.9023 34.4219V34.707ZM16.8711 37.6055C16.8711 37.2539 16.9857 36.9714 17.2148 36.7578C17.444 36.5417 17.7409 36.4336 18.1055 36.4336C18.4753 36.4336 18.7734 36.5404 19 36.7539C19.2292 36.9648 19.3438 37.2565 19.3438 37.6289V37.9102C19.3438 38.2591 19.2318 38.5417 19.0078 38.7578C18.7839 38.9714 18.4857 39.0781 18.1133 39.0781C17.7383 39.0781 17.4375 38.9701 17.2109 38.7539C16.9844 38.5378 16.8711 38.2513 16.8711 37.8945V37.6055ZM17.6211 37.9102C17.6211 38.0534 17.668 38.1758 17.7617 38.2773C17.8555 38.3789 17.9727 38.4297 18.1133 38.4297C18.431 38.4297 18.5898 38.2539 18.5898 37.9023V37.6055C18.5898 37.4492 18.5456 37.3242 18.457 37.2305C18.3685 37.1341 18.2513 37.0859 18.1055 37.0859C17.9596 37.0859 17.8424 37.1341 17.7539 37.2305C17.6654 37.3242 17.6211 37.4531 17.6211 37.6172V37.9102ZM15.6133 38.5742L15.0625 38.2773L17.8398 33.832L18.3906 34.1289L15.6133 38.5742ZM25.1367 37.5078C25.1367 37.2865 25.0586 37.1172 24.9023 37C24.7461 36.8802 24.4648 36.7552 24.0586 36.625C23.6523 36.4922 23.3307 36.362 23.0938 36.2344C22.4479 35.8854 22.125 35.4154 22.125 34.8242C22.125 34.5169 22.2109 34.2435 22.3828 34.0039C22.5573 33.7617 22.806 33.5729 23.1289 33.4375C23.4544 33.3021 23.819 33.2344 24.2227 33.2344C24.6289 33.2344 24.9909 33.3086 25.3086 33.457C25.6263 33.6029 25.8724 33.8099 26.0469 34.0781C26.224 34.3464 26.3125 34.651 26.3125 34.9922H25.1406C25.1406 34.7318 25.0586 34.5299 24.8945 34.3867C24.7305 34.2409 24.5 34.168 24.2031 34.168C23.9167 34.168 23.694 34.2292 23.5352 34.3516C23.3763 34.4714 23.2969 34.6302 23.2969 34.8281C23.2969 35.013 23.3893 35.168 23.5742 35.293C23.7617 35.418 24.0365 35.5352 24.3984 35.6445C25.0651 35.8451 25.5508 36.0938 25.8555 36.3906C26.1602 36.6875 26.3125 37.0573 26.3125 37.5C26.3125 37.9922 26.1263 38.3789 25.7539 38.6602C25.3815 38.9388 24.8802 39.0781 24.25 39.0781C23.8125 39.0781 23.4141 38.9987 23.0547 38.8398C22.6953 38.6784 22.4206 38.4583 22.2305 38.1797C22.043 37.901 21.9492 37.5781 21.9492 37.2109H23.125C23.125 37.8385 23.5 38.1523 24.25 38.1523C24.5286 38.1523 24.7461 38.0964 24.9023 37.9844C25.0586 37.8698 25.1367 37.7109 25.1367 37.5078ZM28.9805 39.0781C28.3607 39.0781 27.8555 38.888 27.4648 38.5078C27.0768 38.1276 26.8828 37.6211 26.8828 36.9883V36.8789C26.8828 36.4544 26.9648 36.0755 27.1289 35.7422C27.293 35.4062 27.5247 35.1484 27.8242 34.9688C28.1263 34.7865 28.4701 34.6953 28.8555 34.6953C29.4336 34.6953 29.888 34.8776 30.2188 35.2422C30.5521 35.6068 30.7188 36.1237 30.7188 36.793V37.2539H28.0273C28.0638 37.5299 28.1732 37.7513 28.3555 37.918C28.5404 38.0846 28.7734 38.168 29.0547 38.168C29.4896 38.168 29.8294 38.0104 30.0742 37.6953L30.6289 38.3164C30.4596 38.556 30.2305 38.7435 29.9414 38.8789C29.6523 39.0117 29.332 39.0781 28.9805 39.0781ZM28.8516 35.6094C28.6276 35.6094 28.4453 35.6849 28.3047 35.8359C28.1667 35.987 28.0781 36.2031 28.0391 36.4844H29.6094V36.3945C29.6042 36.1445 29.5365 35.9518 29.4062 35.8164C29.276 35.6784 29.0911 35.6094 28.8516 35.6094ZM33.1211 38.168C33.3294 38.168 33.4987 38.1107 33.6289 37.9961C33.7591 37.8815 33.8268 37.7292 33.832 37.5391H34.8906C34.888 37.8255 34.8099 38.0885 34.6562 38.3281C34.5026 38.5651 34.2917 38.75 34.0234 38.8828C33.7578 39.013 33.4635 39.0781 33.1406 39.0781C32.5365 39.0781 32.0599 38.8867 31.7109 38.5039C31.362 38.1185 31.1875 37.5872 31.1875 36.9102V36.8359C31.1875 36.1849 31.3607 35.6654 31.707 35.2773C32.0534 34.8893 32.5286 34.6953 33.1328 34.6953C33.6615 34.6953 34.0846 34.8464 34.4023 35.1484C34.7227 35.4479 34.8854 35.8477 34.8906 36.3477H33.832C33.8268 36.1289 33.7591 35.9518 33.6289 35.8164C33.4987 35.6784 33.3268 35.6094 33.1133 35.6094C32.8503 35.6094 32.651 35.7057 32.5156 35.8984C32.3828 36.0885 32.3164 36.3984 32.3164 36.8281V36.9453C32.3164 37.3802 32.3828 37.6927 32.5156 37.8828C32.6484 38.0729 32.8503 38.168 33.1211 38.168ZM38.0664 38.5703C37.7878 38.9089 37.4023 39.0781 36.9102 39.0781C36.457 39.0781 36.1107 38.9479 35.8711 38.6875C35.6341 38.4271 35.513 38.0456 35.5078 37.543V34.7734H36.6367V37.5039C36.6367 37.944 36.8372 38.1641 37.2383 38.1641C37.6211 38.1641 37.8841 38.0312 38.0273 37.7656V34.7734H39.1602V39H38.0977L38.0664 38.5703ZM42.3867 35.832C42.2331 35.8112 42.0977 35.8008 41.9805 35.8008C41.5534 35.8008 41.2734 35.9453 41.1406 36.2344V39H40.0117V34.7734H41.0781L41.1094 35.2773C41.3359 34.8893 41.6497 34.6953 42.0508 34.6953C42.1758 34.6953 42.293 34.7122 42.4023 34.7461L42.3867 35.832ZM44.8008 39.0781C44.181 39.0781 43.6758 38.888 43.2852 38.5078C42.8971 38.1276 42.7031 37.6211 42.7031 36.9883V36.8789C42.7031 36.4544 42.7852 36.0755 42.9492 35.7422C43.1133 35.4062 43.3451 35.1484 43.6445 34.9688C43.9466 34.7865 44.2904 34.6953 44.6758 34.6953C45.2539 34.6953 45.7083 34.8776 46.0391 35.2422C46.3724 35.6068 46.5391 36.1237 46.5391 36.793V37.2539H43.8477C43.8841 37.5299 43.9935 37.7513 44.1758 37.918C44.3607 38.0846 44.5938 38.168 44.875 38.168C45.3099 38.168 45.6497 38.0104 45.8945 37.6953L46.4492 38.3164C46.2799 38.556 46.0508 38.7435 45.7617 38.8789C45.4727 39.0117 45.1523 39.0781 44.8008 39.0781ZM44.6719 35.6094C44.4479 35.6094 44.2656 35.6849 44.125 35.8359C43.987 35.987 43.8984 36.2031 43.8594 36.4844H45.4297V36.3945C45.4245 36.1445 45.3568 35.9518 45.2266 35.8164C45.0964 35.6784 44.9115 35.6094 44.6719 35.6094Z" fill="#111111"/>
</svg>