<?xml version="1.0" encoding="utf-8"?>
<!-- Uploaded to: SVG Repo, www.svgrepo.com, Generator: SVG Repo Mixer Tools -->
<svg width="800px" height="800px" viewBox="0 -25 1074 1074" fill="#000000" class="icon"  version="1.1" xmlns="http://www.w3.org/2000/svg"><path d="M693.922034 387.165572l109.167529 40.204555 28.329188-76.832192-109.167528-40.204555-28.329189 76.832192z m-272.274975 52.795305l109.167528 40.204555 28.329188-76.832192-109.167528-40.204555-28.329188 76.832192zM376.864049 0L171.548973 557.426855c30.904569-24.752271 66.673746-43.781473 108.022915-44.78301L427.799357 110.169065l530.528434 195.442784-76.402962 207.604303c29.330725 0.715384 57.230683 11.446137 80.266033 30.332262l106.449071-288.871874L376.864049 0z m268.554981 522.373061l109.167529 40.204555 28.329188-76.832192-109.167528-40.204555-28.329189 76.832192zM470.150063 304.753388l109.167528 40.204555 28.329188-76.832192-109.167528-40.204555-28.329188 76.832192zM83.556798 782.057287c39.918402 3.576918 81.410647-14.450748 114.604443-49.361465 3.719994-4.006148 7.726142-8.441526 12.018443-13.01998 10.158446-11.159983 31.476876-34.481487 49.504541-49.647618 1.859997 31.476876 14.021517 59.09068 23.607657 73.541428 19.029202 28.758418 47.930697 46.0707 80.981417 48.932234 41.778399 3.719994 88.993712-16.739975 123.618276-53.224535 3.576918-3.863071 7.583066-8.155372 11.73229-12.733827 11.589213-12.59075 36.05533-39.346095 56.372223-56.08607 2.003074 31.333799 14.021517 58.66145 23.607657 72.969121 19.029202 28.758418 47.930697 46.0707 81.124493 48.932235 41.921475 3.576918 89.279866-16.739975 123.904429-53.224536 3.576918-3.719994 7.296912-7.869219 11.30306-12.16152 10.587676-11.589213 36.05533-39.346095 57.087607-56.5153 2.003074 31.333799 14.021517 58.66145 23.607657 72.969121 20.316893 30.618416 50.219925 49.075311 84.129104 51.936845 3.290764 0.286153 6.581529 0.42923 9.729216 0.429231 36.627637 0 74.113735-17.598435 104.159844-49.218388l-62.238368-59.09068c-13.878441 14.736901-31.047646 23.46458-44.210703 22.319966-4.864608-0.42923-12.16152-2.289227-19.887663-14.021517-5.293838-7.869219-14.450748-33.766103-5.866145-50.792232l13.019981-25.610731-18.743049-21.747659c-15.309208-17.741512-35.19687-27.184575-57.659913-27.470728h-1.287691c-50.219925 0-95.432164 44.78301-144.793628 98.866005-3.719994 4.149225-7.296912 8.012296-10.4446 11.30306-16.167668 17.026128-38.058404 27.756881-54.082996 26.469191-5.150761-0.42923-11.159983-2.146151-17.026128-11.016906-5.293838-8.012296-14.450748-33.766103-5.866145-50.792232l12.59075-25.324577-18.886125-21.74766c-15.309208-17.741512-35.19687-27.184575-57.659914-27.470728h-1.144613c-54.226072 0-104.016767 54.512226-144.221322 98.436775-3.863071 4.292301-7.583066 8.298449-10.87383 11.732291-16.024591 17.026128-38.058404 27.613805-53.796842 26.469191-5.007685-0.42923-11.016907-2.146151-16.883052-11.016907-5.293838-7.869219-14.450748-33.766103-5.866145-50.792231l13.019981-25.610731-18.743049-21.74766c-15.738438-18.170742-35.912254-27.899958-58.66145-28.186111h-1.144614c-52.366075 0-99.009082 51.078385-136.495179 92.284476-4.006148 4.292301-7.726142 8.441526-11.016907 12.018444-14.164594 14.879978-31.763029 23.89381-44.639933 22.60612-4.864608-0.42923-12.018443-2.289227-19.601509-13.735364l-71.538354 47.501467c20.173816 30.475339 49.933771 48.789157 83.556798 51.650692z m884.357132 155.953611c-4.864608-0.42923-12.16152-2.289227-19.887662-14.021517-5.293838-7.869219-14.450748-33.766103-5.866145-50.792231l13.01998-25.610731-18.743048-21.74766c-15.309208-17.741512-35.19687-27.184575-57.659914-27.470728h-1.28769c-50.219925 0-95.432164 44.78301-144.936705 98.866006-3.719994 4.149225-7.296912 8.012296-10.4446 11.30306-16.167668 17.026128-38.344558 27.756881-54.082996 26.469191-5.150761-0.42923-11.159983-2.146151-17.026128-11.016907-5.293838-8.012296-14.450748-33.766103-5.866145-50.792231l13.01998-25.610731-18.886125-21.74766c-15.309208-17.741512-35.19687-27.184575-57.659914-27.470728h-1.144613c-50.076848 0-95.002934 44.639933-144.221322 98.436775-3.863071 4.292301-7.583066 8.298449-10.730753 11.732291-16.024591 16.883052-38.058404 27.756881-53.796842 26.469191-5.007685-0.42923-11.016907-2.146151-16.883052-11.016907-5.293838-7.869219-14.450748-33.766103-5.866145-50.792231l13.019981-25.610731-18.743049-21.74766c-15.738438-18.170742-35.912254-27.899958-58.661451-28.186111h-1.144613c-52.366075 0-99.009082 51.078385-136.49518 92.284476-4.006148 4.292301-7.726142 8.441526-11.016906 12.018444-14.164594 14.879978-31.763029 23.607657-44.639933 22.60612-5.007685-0.42923-12.16152-2.289227-19.744586-13.735364l-71.538354 47.501467c20.173816 30.475339 49.933771 48.789157 83.556798 51.650692 39.632248 3.290764 81.410647-14.450748 114.604443-49.361465 3.719994-4.006148 7.726142-8.441526 12.018443-13.01998 10.158446-11.159983 31.476876-34.481487 49.504541-49.647618 1.859997 31.476876 14.021517 59.09068 23.607657 73.541428 19.029202 28.758418 47.930697 46.0707 80.981417 48.932234 41.635322 3.576918 88.993712-16.739975 123.618276-53.224535 3.576918-3.863071 7.583066-8.155372 11.589213-12.59075 11.589213-12.59075 36.05533-39.346095 56.372223-56.08607 2.003074 31.333799 14.021517 58.66145 23.607657 72.969121 19.029202 28.758418 47.930697 46.0707 81.124493 48.932234 41.635322 3.576918 89.279866-16.739975 123.90443-53.224535 3.433841-3.719994 7.296912-7.869219 11.30306-12.16152 10.587676-11.589213 36.05533-39.489171 57.087606-56.658377 2.003074 31.333799 14.021517 58.66145 23.607657 72.969121 20.316893 30.618416 50.219925 49.075311 84.129104 51.936845 3.290764 0.286153 6.581529 0.42923 9.729216 0.429231 36.627637 0 74.113735-17.598435 104.159844-49.218388L1012.124633 915.690932c-13.878441 14.736901-30.904569 23.321503-44.210703 22.319966z" /></svg>