<?xml version="1.0" encoding="iso-8859-1"?>
<!-- Uploaded to: SVG Repo, www.svgrepo.com, Generator: SVG Repo Mixer Tools -->
<svg fill="#000000" height="800px" width="800px" version="1.1" id="Layer_1" xmlns="http://www.w3.org/2000/svg" xmlns:xlink="http://www.w3.org/1999/xlink" 
	 viewBox="0 0 512 512" xml:space="preserve">
<g>
	<g>
		<path d="M315.981,169.957c-21.529,0-40.851,9.406-54.112,24.322c-13.261-14.916-32.583-24.322-54.112-24.322
			c-39.983,0-72.396,32.413-72.396,72.396c0.002,44.944,54.214,88.914,82.415,110.727c18.262,14.125,44.093,30.89,44.093,30.89
			s25.831-16.766,44.093-30.89c28.202-21.812,82.413-65.783,82.413-110.727C388.377,202.37,355.965,169.957,315.981,169.957z"/>
	</g>
</g>
<g>
	<g>
		<path d="M435.912,396.739c-20.63-23.573,1.966-46.604,4.639-72.551c0.985-9.558,0.526-19.934-5.142-27.693
			c-5.291-7.243-13.852-10.681-22.443-13.867c-6.499,15.123-16.577,30.451-30.191,45.866c-18.254,20.669-39.72,38.112-56.381,50.997
			c-19.134,14.799-45.241,31.772-46.343,32.486l-18.179,11.799l-18.179-11.799c-0.746-0.484-12.96-8.426-26.708-18.096
			c-2.562,6.407-3.222,14.235-3.769,21.236c-0.941,12.044-5.881,26.876-17.912,27.974c-9.957,0.909-17.764-8.967-20.244-18.654
			s-1.754-20.087-5.148-29.492c-5.334-14.783-20.102-25.107-23.719-40.401c-1.588-6.716-0.836-13.702-0.303-20.651
			c-1.66-1.776-3.307-3.571-4.922-5.399c-25.875-29.297-38.994-58.28-38.994-86.142c0-6.528,0.599-12.918,1.736-19.122
			c-0.865-0.653-1.745-1.284-2.61-1.904c-14.699-10.524-28.396-22.446-40.845-35.554c-7.415-7.807-14.575-16.367-17.645-26.687
			c-3.67-12.337-1.106-7.936-9.858-17.356C15.56,176.129,5.873,214.931,5.873,256.001C5.873,397.387,120.485,512,261.87,512
			c83.341,0,157.37-39.834,204.115-101.492C454.215,410.496,443.664,405.597,435.912,396.739z"/>
	</g>
</g>
<g>
	<g>
		<path d="M444.874,77.015c-2.987,10.366-9.159,19.414-19.947,19.023c-10.749-0.39-20.699-7.354-31.419-6.493
			c-13.351,1.071-24.98,14.081-37.976,10.841c-6.972-1.739-11.907-7.76-16.322-13.431c-2.907-3.735-5.983-8.071-5.244-12.747
			c0.452-2.864,2.284-5.291,4.057-7.586c9.084-11.758,27.566-27.457,38.024-39.79C341.672,9.67,302.902,0,261.87,0
			c-21.766,0-42.893,2.726-63.069,7.838c4.705,18.068,11.15,34.731,18.317,52.3c4.943,12.117,9.982,24.846,8.656,37.865
			c-3.384,33.238-28.958,16.483-46.457,28.77c-6.184,4.342-11.748,10.023-19.024,12.061c-7.708,2.159-15.871-0.174-23.871-0.436
			c-9.759-0.321-37.975,6.728-33.106,22.658c0.87,2.847,3.046,5.084,5.241,7.097c4.399,4.033,9.317,7.649,14.57,10.803
			c19.316-25.721,50.064-42.39,84.634-42.39c19.223,0,37.899,5.257,54.112,14.91c16.213-9.652,34.888-14.91,54.112-14.91
			c34.227,0,64.703,16.344,84.051,41.631c4.68-1.158,9.633-1.376,14.758-0.357c20.456,4.066,33.913,14.955,56.057,13.252
			c17.248-1.327,30.546,2.491,35.278-11.94C493.911,140.29,472.672,105.433,444.874,77.015z"/>
	</g>
</g>
</svg>